<svg xmlns="http://www.w3.org/2000/svg" width="12" height="12" viewBox="0 0 12 12"><g class="nc-icon-wrapper" fill="#F7F7F7"><path d="m6,9.001c-1.654,0-3-1.346-3-3s1.346-3,3-3,3,1.346,3,3-1.346,3-3,3Zm0-4.5c-.827,0-1.5.673-1.5,1.5s.673,1.5,1.5,1.5,1.5-.673,1.5-1.5-.673-1.5-1.5-1.5Z" fill="#F7F7F7" stroke-width="0" data-color="color-2"></path><path d="m6,12.001c-3.309,0-6-2.691-6-6S2.691.001,6,.001s6,2.691,6,6c0,1.738-1.024,3-2.435,3-1.158,0-2.065-.988-2.065-2.25v-3c0-.414.336-.75.75-.75s.75.336.75.75v3c0,.42.248.75.565.75.542,0,.935-.631.935-1.5,0-2.481-2.019-4.5-4.5-4.5S1.5,3.52,1.5,6.001s2.019,4.5,4.5,4.5c.594,0,1.171-.114,1.714-.338.386-.156.821.025.979.407.158.383-.024.821-.407.979-.725.299-1.495.451-2.286.451Z" stroke-width="0" fill="#F7F7F7"></path></g></svg>