<svg aria-label="dazed-logo" id="dd-logo" viewBox="0 0 727 175" xmlns="http://www.w3.org/2000/svg"><path class="D first" d="M0,0 L111.4,0 C141.2,0 154.5,10.1 154.5,37.6 L154.5,132.3 C154.5,164.3 142.9,174.4 111.4,174.4 L0,174.4 L0,0 L0,0 Z M75.6,134.4 C83.3,134.4 85.5,131 85.5,122 L85.5,52.2 C85.5,43.2 83.1,39.8 75.6,39.8 L68,39.8 L68,134.5 L75.6,134.5 L75.6,134.4 Z" fill="currentColor"></path><path class="A" d="M239,38.9 L246.1,98.1 L231.7,98.1 L239,38.9 L239,38.9 Z M185.7,0 L155,174.3 L225.2,174.3 L229.1,136.5 L248.6,136.5 L252.5,174.3 L322.9,174.3 L292.2,0 L185.7,0 L185.7,0 Z" fill="currentColor"></path><polyline class="Z" fill="currentColor" points="331.1 0 331.1 39.7 373.6 39.7 327 137 327 174.3 449.6 174.3 449.6 134.6 402.8 134.6 449.6 36.5 449.6 0 331.1 0"></polyline><polyline class="E" fill="currentColor" points="455 0 455 174.3 564.9 174.3 564.9 134.6 523.1 134.6 523.1 98.5 564.9 98.5 564.9 58.8 523.1 58.8 523.1 39.7 564.9 39.7 564.9 0 455 0"></polyline><path class="D last" d="M572,174.3 L683.4,174.3 C715,174.3 726.5,164.2 726.5,132.2 L726.5,37.6 C726.5,10.1 713.2,0 683.4,0 L572,0 L572,174.3 L572,174.3 Z M640,134.4 L640,39.7 L647.5,39.7 C655,39.7 657.4,43.1 657.4,52.1 L657.4,121.9 C657.4,130.9 655.3,134.3 647.5,134.3 L640,134.3 L640,134.4 Z" fill="currentColor"></path></svg>